<?xml version="1.0" standalone="no"?>
<!DOCTYPE svg PUBLIC "-//W3C//DTD SVG 20010904//EN"
 "http://www.w3.org/TR/2001/REC-SVG-20010904/DTD/svg10.dtd">
<svg version="1.0" xmlns="http://www.w3.org/2000/svg"
 width="326.000000pt" height="308.000000pt" viewBox="0 0 326.000000 308.000000"
 preserveAspectRatio="xMidYMid meet">

<g transform="translate(0.000000,308.000000) scale(0.100000,-0.100000)"
 stroke="none">
<path d="M2113 2736 c-18 -8 -48 -37 -67 -64 -34 -47 -39 -49 -91 -55 -102
-10 -205 -89 -254 -193 -61 -130 -49 -270 34 -379 32 -42 133 -111 175 -120
41 -9 45 -20 24 -66 -17 -38 -19 -40 -53 -34 -20 3 -133 17 -251 30 l-215 24
-17 -20 c-13 -16 -15 -25 -8 -40 6 -10 12 -19 13 -19 54 0 469 -54 503 -66 96
-32 170 -101 199 -185 8 -23 15 -43 15 -45 0 -2 -24 11 -52 31 -122 80 -261
69 -368 -31 -80 -75 -113 -189 -88 -301 l8 -33 -305 0 -305 0 7 27 c5 16 8 60
7 98 -1 82 -29 147 -90 208 -39 38 -62 45 -82 25 -20 -20 -14 -43 19 -74 119
-112 90 -293 -58 -368 -83 -42 -207 -3 -263 82 -38 57 -46 101 -30 170 17 77
83 144 161 162 62 15 79 25 79 51 0 58 -112 43 -212 -28 l-48 -33 0 38 c0 108
67 217 166 269 106 56 202 64 424 38 153 -18 145 -18 163 0 20 19 10 54 -17
60 -45 11 -284 35 -341 35 -141 0 -276 -50 -358 -132 -26 -26 -50 -48 -52 -48
-1 0 -31 71 -65 158 -35 86 -67 163 -73 170 -13 17 -42 15 -57 -3 -11 -13 1
-50 69 -223 l82 -207 -12 -54 c-7 -35 -9 -78 -4 -120 5 -36 9 -109 9 -161 1
-86 4 -102 32 -158 l31 -63 -23 -102 c-13 -56 -23 -115 -24 -131 0 -16 19 -64
42 -107 l41 -78 -30 -29 c-82 -76 -48 -214 60 -243 24 -6 128 -9 266 -7 199 3
230 5 254 21 69 45 90 149 41 207 -38 45 -75 60 -146 60 l-63 0 -42 65 c-24
36 -43 75 -43 87 0 13 11 60 23 106 21 75 27 87 66 118 l44 34 348 0 c326 0
349 -1 349 -17 0 -10 -10 -67 -21 -126 l-22 -108 43 -84 44 -83 -37 -41 c-32
-35 -37 -48 -37 -89 0 -54 25 -101 67 -129 24 -16 53 -18 279 -18 239 0 254 1
280 21 48 35 66 67 66 117 0 93 -52 140 -160 146 l-73 3 -44 63 c-25 34 -45
71 -45 81 0 11 11 59 24 107 22 80 29 92 71 129 72 64 99 124 100 233 2 88 3
94 90 313 l89 223 51 -8 c27 -4 88 -8 135 -8 102 1 146 20 209 91 96 109 93
269 -6 375 -36 38 -83 68 -245 150 -169 87 -202 108 -214 134 -7 16 -24 55
-37 87 -36 81 -91 111 -154 84z m75 -99 c6 -12 22 -51 35 -87 l24 -65 119 -64
c104 -57 115 -65 93 -71 -75 -21 -113 -76 -107 -156 6 -75 46 -129 122 -169
50 -25 72 -30 157 -33 55 -3 99 -7 99 -11 0 -12 -53 -58 -87 -75 -49 -25 -114
-20 -402 30 -296 50 -365 73 -432 144 -93 98 -89 270 10 382 45 51 105 78 174
78 55 0 56 0 88 47 60 87 83 98 107 50z m377 -387 c-3 -5 1 -10 9 -10 8 0 18
5 21 10 7 11 75 14 75 3 0 -4 -10 -17 -22 -30 -29 -31 -14 -43 17 -13 20 19
27 21 40 10 21 -18 19 -33 -10 -60 -25 -23 -33 -50 -16 -50 5 0 21 14 35 30
l25 30 7 -36 c3 -19 3 -39 -2 -44 -5 -5 -39 -12 -75 -16 -128 -13 -230 41
-233 122 -1 31 4 40 24 51 30 15 114 18 105 3z m-543 -432 c-7 -7 -12 -8 -12
-2 0 6 3 14 7 17 3 4 9 5 12 2 2 -3 -1 -11 -7 -17z m91 4 c15 -7 13 -11 -17
-41 -33 -32 -34 -33 -60 -16 l-27 18 22 23 c22 24 48 29 82 16z m81 -18 c24
-9 20 -17 -29 -66 l-44 -45 -21 22 -21 22 33 35 c33 36 53 43 82 32z m-5 -113
c-17 -41 -24 -49 -35 -40 -8 6 -14 16 -14 22 0 12 61 79 67 73 2 -1 -6 -26
-18 -55z m-234 -192 c51 -14 99 -50 132 -100 37 -56 38 -145 2 -214 -47 -93
-165 -138 -263 -101 -57 22 -121 91 -136 147 -25 93 22 203 105 246 64 34 100
38 160 22z m-1335 -509 c0 -3 -16 -21 -35 -40 -39 -38 -40 -37 -24 25 10 41
12 43 35 33 13 -6 24 -14 24 -18z m1144 21 c3 -4 -4 -17 -16 -27 -20 -18 -21
-18 -15 -1 4 10 7 23 7 28 0 11 17 12 24 0z m70 -27 c19 -5 15 -12 -48 -74
-38 -39 -71 -68 -74 -66 -2 3 -1 23 3 46 8 48 60 114 82 105 8 -3 25 -8 37
-11z m-1136 -4 c24 0 19 -8 -58 -85 -85 -86 -100 -91 -100 -35 0 29 97 133
118 125 8 -3 26 -5 40 -5z m1186 -57 c-10 -34 -31 -65 -71 -105 l-57 -57 -17
27 -17 27 81 82 c44 45 84 80 88 78 4 -3 1 -26 -7 -52z m-1179 -30 c-8 -27
-15 -51 -15 -56 0 -10 -81 -97 -90 -97 -4 0 -13 14 -20 31 -13 30 -12 31 56
100 38 38 72 69 76 69 4 0 1 -21 -7 -47z m1136 -155 c-19 -21 -30 -38 -25 -38
6 0 21 11 34 25 28 30 46 32 60 6 19 -36 12 -41 -51 -41 -47 0 -65 4 -75 18
-22 28 -16 44 28 89 l42 43 11 -33 c11 -30 9 -35 -24 -69z m-1135 45 c18 -24
17 -43 -3 -65 -9 -10 -11 -18 -6 -18 6 0 16 7 23 15 10 12 16 13 26 4 27 -22
13 -29 -55 -29 -88 0 -98 16 -44 72 20 21 39 38 41 38 3 0 11 -8 18 -17z m342
-199 c28 -20 29 -65 1 -90 -19 -18 -39 -19 -250 -19 -199 0 -230 2 -245 17
-22 21 -21 64 1 88 17 19 32 20 244 20 189 0 230 -3 249 -16z m1170 0 c23 -16
29 -57 13 -83 -14 -22 -87 -30 -286 -31 -157 0 -194 3 -213 16 -27 18 -30 69
-5 96 15 16 36 18 242 18 189 0 230 -3 249 -16z"/>
<path d="M1977 2284 c-4 -4 -7 -18 -7 -31 0 -28 32 -43 95 -43 68 0 97 15 93
48 -3 27 -3 27 -88 30 -47 1 -89 0 -93 -4z" fill="#EA3323"/>
<path d="M1242 1618 c-15 -15 -15 -41 0 -56 19 -19 173 -16 192 4 19 18 19 20
6 45 -9 17 -22 19 -98 19 -55 0 -92 -4 -100 -12z" fill="#EA3323"/>
<path d="M1242 1428 c-7 -7 -12 -19 -12 -28 0 -32 23 -40 112 -40 76 0 89 2
98 19 13 25 13 27 -6 45 -19 20 -173 23 -192 4z" fill="#EA3323"/>
</g>
</svg>
