<?xml version="1.0" standalone="no"?>
<!DOCTYPE svg PUBLIC "-//W3C//DTD SVG 20010904//EN"
 "http://www.w3.org/TR/2001/REC-SVG-20010904/DTD/svg10.dtd">
<svg version="1.0" xmlns="http://www.w3.org/2000/svg"
 width="317.000000pt" height="320.000000pt" viewBox="0 0 317.000000 320.000000"
 preserveAspectRatio="xMidYMid meet">

<g transform="translate(0.000000,320.000000) scale(0.100000,-0.100000)"
 fill="#000000" stroke="none">
<path d="M1516 2939 c-357 -52 -656 -273 -821 -607 -86 -174 -114 -303 -115
-527 0 -214 -16 -276 -110 -425 -55 -87 -75 -158 -60 -205 15 -46 48 -67 123
-77 34 -5 65 -12 69 -16 5 -5 10 -116 11 -248 3 -274 8 -297 83 -363 83 -73
77 -72 814 -78 l655 -5 34 23 c74 52 76 57 79 290 l4 209 76 0 c161 1 199 44
286 333 173 570 101 1055 -206 1382 -60 65 -83 76 -106 53 -21 -21 -13 -43 29
-83 138 -134 240 -336 280 -555 21 -114 16 -378 -9 -520 -35 -191 -113 -441
-155 -493 -31 -39 -75 -46 -279 -47 -97 0 -188 -4 -201 -9 -51 -19 -101 -79
-228 -268 -83 -123 -142 -201 -162 -214 -31 -19 -47 -20 -397 -17 -347 3 -367
4 -410 24 -86 41 -110 89 -110 225 l0 89 116 0 c120 0 154 8 154 38 0 36 -20
42 -147 42 l-123 0 0 91 c0 141 -25 177 -134 190 -32 4 -63 12 -68 17 -17 17
-1 74 39 138 114 186 121 213 133 494 10 256 24 319 111 492 80 160 237 332
375 414 178 105 354 149 559 141 162 -7 266 -31 404 -97 115 -55 137 -60 146
-29 10 30 -15 52 -109 98 -190 93 -424 130 -630 100z m679 -2237 c0 -190 -1
-205 -19 -218 -16 -11 -66 -14 -244 -14 -123 0 -222 3 -220 8 13 29 251 372
271 391 32 29 75 40 152 38 l60 -2 0 -203z"/>
<path d="M1594 2611 c-45 -28 -64 -59 -64 -109 0 -54 22 -97 60 -117 30 -15
30 -16 30 -100 l0 -85 -55 0 -55 0 0 70 c0 61 -3 71 -22 81 -35 19 -58 -18
-58 -92 l0 -59 -31 0 c-43 0 -94 -26 -108 -56 -6 -14 -11 -43 -11 -64 l0 -39
-72 -3 c-69 -3 -73 -4 -76 -27 -5 -36 22 -51 90 -51 l58 0 0 -50 0 -50 -88 0
c-85 0 -89 1 -100 25 -28 61 -122 83 -183 42 -41 -28 -59 -60 -59 -110 0 -77
53 -127 136 -127 43 0 51 4 91 45 l43 45 80 0 80 0 0 -55 0 -55 -63 0 c-65 0
-87 -11 -87 -42 0 -25 31 -38 94 -38 l56 0 0 -46 c0 -37 5 -51 29 -75 24 -24
38 -29 75 -29 l46 0 0 -61 c0 -68 12 -99 38 -99 32 0 42 22 42 92 l0 68 55 0
55 0 0 -89 c0 -80 -2 -90 -20 -96 -38 -12 -70 -63 -70 -112 0 -82 51 -133 133
-133 100 0 160 111 107 198 -11 18 -31 38 -45 44 -24 11 -25 15 -25 100 l0 89
53 -3 52 -3 3 -70 c2 -38 7 -74 12 -79 5 -5 20 -6 34 -2 25 6 26 9 26 81 l0
75 40 0 c78 0 120 43 120 121 0 28 1 29 56 29 63 0 94 13 94 38 0 31 -22 42
-87 42 l-63 0 0 55 0 55 85 0 c84 0 85 0 100 -30 20 -39 63 -60 121 -60 39 0
51 5 79 33 39 39 50 72 40 124 -13 69 -91 116 -162 98 -15 -3 -44 -24 -65 -46
l-37 -39 -81 0 -80 0 0 50 0 50 48 0 c64 0 90 9 97 32 11 34 -12 48 -80 48
l-62 0 -5 51 c-7 68 -36 97 -106 106 l-52 6 0 68 c0 59 -3 70 -21 79 -35 19
-49 -3 -49 -81 l0 -69 -55 0 -55 0 0 81 0 81 41 37 c36 32 42 43 46 86 3 39
-1 58 -17 83 -36 58 -118 78 -176 43z m104 -73 c18 -18 14 -63 -8 -83 -45 -41
-110 18 -76 70 18 27 63 34 84 13z m260 -720 l2 -298 -300 0 -300 0 0 300 0
300 298 -2 297 -3 3 -297z m-940 40 c18 -18 14 -63 -8 -83 -45 -40 -109 20
-75 71 17 26 62 33 83 12z m1360 0 c21 -21 14 -66 -13 -84 -51 -33 -104 21
-71 71 18 27 63 34 84 13z m-680 -680 c21 -21 14 -66 -13 -84 -51 -33 -104 21
-71 71 18 27 63 34 84 13z" fill="#476FDC"/>
<path d="M1480 1990 c-18 -18 -20 -33 -20 -170 0 -147 1 -152 25 -175 23 -24
28 -25 172 -25 205 0 193 -12 193 194 0 145 -2 165 -18 179 -16 14 -43 17
-175 17 -144 0 -159 -2 -177 -20z m298 -172 l3 -118 -121 0 -120 0 0 120 0
121 118 -3 117 -3 3 -117z" fill="#61C554"/>
</g>
</svg>
