<?xml version="1.0" standalone="no"?>
<!DOCTYPE svg PUBLIC "-//W3C//DTD SVG 20010904//EN"
 "http://www.w3.org/TR/2001/REC-SVG-20010904/DTD/svg10.dtd">
<svg version="1.0" xmlns="http://www.w3.org/2000/svg"
 width="351.000000pt" height="321.000000pt" viewBox="0 0 351.000000 321.000000"
 preserveAspectRatio="xMidYMid meet">

<g transform="translate(0.000000,321.000000) scale(0.100000,-0.100000)"
 fill="#000000" stroke="none">
<path d="M567 2756 c-48 -18 -74 -41 -98 -88 -18 -36 -19 -73 -19 -886 l0
-849 23 -44 c15 -27 38 -52 63 -66 38 -22 44 -23 423 -23 l384 0 -7 -39 c-13
-85 -19 -91 -83 -91 -67 0 -117 -21 -147 -63 -23 -31 -36 -128 -24 -176 17
-62 3 -61 683 -61 l617 0 29 29 c26 26 29 36 29 91 0 117 -64 180 -182 180
l-55 0 -17 58 c-9 32 -16 61 -16 65 0 4 160 7 357 7 l356 0 43 25 c28 16 49
39 63 68 21 43 21 51 21 888 0 798 -1 846 -19 884 -22 49 -48 73 -98 91 -56
20 -2270 20 -2326 0z m2302 -77 c63 -22 61 6 61 -804 l0 -735 -1200 0 -1200 0
0 746 0 746 29 29 29 29 1125 0 c797 0 1133 -3 1156 -11z m-220 -1628 c9 -6
10 -11 2 -15 -6 -4 -11 -12 -11 -18 0 -6 10 -2 23 10 18 17 36 22 73 22 l49 0
-86 -85 -86 -85 -1012 0 -1013 0 -29 29 c-26 26 -29 36 -29 90 l0 61 1053 0
c578 0 1058 -4 1066 -9z m166 -81 c-76 -76 -82 -80 -125 -80 l-45 0 80 80 c76
76 82 80 125 80 l45 0 -80 -80z m100 -19 c-3 -9 -5 -16 -3 -17 2 0 -3 -8 -11
-17 -7 -9 -17 -15 -21 -12 -5 3 -11 1 -15 -5 -3 -5 -29 -10 -58 -10 l-52 0 80
80 80 81 3 -42 c2 -23 0 -49 -3 -58z m-1475 -225 c0 -3 -4 -8 -10 -11 -5 -3
-10 -1 -10 4 0 6 5 11 10 11 6 0 10 -2 10 -4z m90 -21 c-19 -20 -33 -25 -72
-25 l-49 0 28 25 c21 18 40 24 72 25 l44 0 -23 -25z m113 0 c-15 -20 -26 -24
-68 -24 l-50 0 28 24 c20 18 40 25 68 25 l40 0 -18 -25z m127 17 c0 -4 -5 -13
-12 -20 -7 -7 -8 -12 -2 -12 6 0 19 9 29 20 13 14 31 20 63 20 44 0 45 0 27
-20 -10 -11 -14 -20 -8 -20 5 0 18 9 28 20 18 20 69 27 79 11 4 -5 3 -16 0
-25 -5 -13 -31 -15 -170 -15 l-164 0 28 24 c26 24 102 36 102 17z m564 -153
c22 -17 26 -28 26 -70 l0 -49 -602 2 -603 3 1 49 c1 91 -36 86 599 86 544 0
553 0 579 -21z"/>
<path d="M656 2558 c-14 -20 -16 -98 -16 -644 0 -600 1 -621 19 -638 18 -16
58 -18 511 -18 372 0 494 3 505 12 21 17 19 47 -4 60 -13 6 -184 10 -485 10
l-466 0 2 578 3 577 955 0 c759 0 954 -3 952 -12 -2 -15 14 -17 23 -3 7 11 75
14 75 3 0 -3 -23 -30 -50 -59 -47 -50 -61 -74 -41 -74 5 0 27 20 50 45 l41 45
0 -39 c0 -32 -7 -46 -50 -88 -47 -47 -62 -73 -41 -73 5 0 27 20 50 45 l41 45
0 -42 c0 -36 -7 -48 -51 -95 -62 -66 -57 -85 6 -23 l45 44 0 -38 c0 -33 -8
-47 -51 -93 -62 -66 -57 -85 6 -23 l45 44 0 -38 c0 -33 -8 -47 -50 -92 -47
-50 -61 -74 -41 -74 5 0 27 20 50 45 l41 45 0 -42 c0 -36 -7 -48 -51 -95 -62
-66 -57 -85 6 -23 l45 44 0 -38 c0 -33 -8 -47 -51 -93 -62 -66 -57 -85 6 -23
l45 44 0 -38 c0 -33 -8 -47 -50 -92 -47 -50 -61 -74 -41 -74 5 0 27 20 50 45
l41 45 0 -39 c0 -32 -7 -46 -50 -88 -47 -47 -62 -73 -41 -73 5 0 27 20 50 45
l41 45 0 -43 c-1 -37 -7 -49 -55 -99 l-54 -58 -404 0 c-385 0 -405 -1 -421
-19 -24 -27 -6 -61 32 -61 15 0 233 -1 486 -3 435 -3 460 -2 482 16 l24 18 0
628 c0 596 -1 629 -18 644 -17 16 -106 17 -1075 17 l-1056 0 -15 -22z m2074
-1178 c0 -39 -1 -40 -35 -40 -19 0 -35 3 -35 7 0 7 61 73 67 73 2 0 3 -18 3
-40z" fill="76B5F9"/>
<path d="M992 2339 c-20 -6 -40 -22 -52 -42 -18 -29 -20 -47 -18 -181 3 -129
5 -150 21 -160 12 -8 22 -8 35 0 14 10 18 32 22 155 l5 144 365 0 365 0 3
-339 c2 -242 -1 -343 -9 -352 -16 -19 -698 -21 -717 -2 -8 8 -12 56 -12 150 0
137 0 139 -25 150 -19 8 -28 8 -40 -2 -14 -12 -16 -37 -13 -172 3 -157 3 -158
31 -185 l27 -28 386 -3 385 -3 35 35 34 34 0 364 c0 342 -1 365 -20 395 -13
21 -31 35 -57 42 -48 14 -705 13 -751 0z" />
<path d="M2111 2331 c-15 -15 -21 -34 -21 -65 0 -34 -4 -46 -18 -50 -10 -4
-32 -20 -48 -37 -26 -27 -29 -37 -29 -99 0 -62 3 -72 29 -99 16 -17 38 -33 48
-37 17 -5 18 -21 18 -224 0 -185 2 -221 16 -234 18 -19 45 -21 62 -4 9 9 12
75 12 233 l0 220 33 16 c35 17 77 86 77 129 0 42 -42 112 -77 129 -28 14 -32
21 -35 65 -2 37 -8 52 -25 63 -19 13 -24 12 -42 -6z m63 -202 c17 -13 26 -30
26 -49 0 -29 -38 -70 -65 -70 -27 0 -65 41 -65 70 0 29 38 70 65 70 7 0 24 -9
39 -21z" fill="#93D06F"/>
<path d="M2421 2331 c-20 -20 -21 -32 -21 -245 0 -209 -1 -225 -18 -230 -10
-4 -31 -20 -47 -36 -22 -23 -29 -41 -33 -86 -6 -70 14 -113 64 -140 28 -15 34
-24 34 -52 0 -46 16 -72 45 -72 29 0 45 26 45 72 0 27 6 36 33 48 35 16 77 87
77 129 0 43 -38 107 -75 127 l-35 18 -2 229 c-3 223 -4 230 -25 244 -19 13
-24 12 -42 -6z m72 -569 c26 -23 22 -67 -9 -91 -34 -27 -52 -26 -81 1 -32 30
-30 71 4 97 28 23 54 21 86 -7z" fill="#93D06F"/>
<path d="M1342 2178 c-7 -7 -12 -29 -12 -49 0 -33 -4 -39 -33 -48 -18 -6 -50
-25 -71 -43 -100 -82 -101 -243 -2 -325 147 -121 366 -24 366 162 0 92 -60
177 -144 205 -33 10 -36 15 -36 49 0 40 -14 61 -40 61 -9 0 -21 -5 -28 -12z
m-7 -285 c3 -15 13 -23 27 -23 34 0 58 29 58 69 l1 36 15 -28 c30 -55 4 -170
-45 -196 -28 -15 -89 6 -122 42 -24 27 -29 40 -29 86 0 49 3 57 37 89 l38 35
7 -44 c4 -24 10 -54 13 -66z" fill="#EB3627"/>
<path d="M1710 991 c-19 -36 14 -70 53 -55 39 14 24 74 -18 74 -14 0 -29 -8
-35 -19z"/>
</g>
</svg>
