<?xml version="1.0" standalone="no"?>
<!DOCTYPE svg PUBLIC "-//W3C//DTD SVG 20010904//EN"
 "http://www.w3.org/TR/2001/REC-SVG-20010904/DTD/svg10.dtd">
<svg version="1.0" xmlns="http://www.w3.org/2000/svg"
 width="256.000000pt" height="256.000000pt" viewBox="0 0 256.000000 256.000000"
 preserveAspectRatio="xMidYMid meet">

<g transform="translate(0.000000,256.000000) scale(0.100000,-0.100000)" fill="#000000" stroke="none">
<path d="M1305 2449 c-11 -6 -145 -136 -297 -288 l-278 -276 -125 125 c-69 69
-125 132 -125 142 0 87 -118 116 -150 37 -22 -52 19 -109 78 -109 10 0 73 -56
142 -125 l125 -125 -282 -283 c-154 -155 -284 -293 -288 -305 -12 -41 4 -88
46 -136 49 -56 77 -59 127 -15 39 35 98 63 152 74 l35 7 -57 -59 c-32 -32 -58
-65 -58 -73 0 -17 249 -270 265 -270 6 0 44 33 84 74 55 55 72 79 67 92 -4 11
2 27 20 45 25 26 29 27 48 14 26 -19 89 -19 124 -1 15 8 78 66 141 129 l114
115 33 -14 c18 -8 43 -14 54 -14 19 0 20 -6 20 -177 l0 -178 -50 -27 c-170
-94 -199 -350 -55 -493 65 -66 125 -89 225 -90 78 0 90 3 148 34 62 34 109 81
133 134 l12 27 183 0 184 0 24 -47 c50 -98 164 -177 275 -190 85 -10 81 -28
81 357 0 385 4 367 -81 357 -111 -13 -225 -92 -275 -189 l-24 -48 -184 0 -184
0 -12 31 c-17 39 -90 112 -129 129 l-31 12 0 254 c0 235 1 256 20 286 29 48
34 105 15 162 l-17 48 136 137 c74 75 140 150 146 166 25 67 13 85 -213 312
-239 241 -277 267 -342 232z m223 -232 l162 -162 -395 -395 -395 -395 -170
170 -170 170 387 387 c214 214 395 388 403 388 8 0 88 -73 178 -163z m-33
-1603 c32 -35 32 -78 0 -109 -49 -50 -135 -15 -135 55 0 71 87 106 135 54z
m585 -54 l0 -40 -160 0 -160 0 0 40 0 40 160 0 160 0 0 -40z"/>
<path d="M1011 1936 c-297 -298 -322 -325 -312 -345 7 -11 19 -21 29 -21 9 0
153 136 319 302 l302 302 79 -77 c44 -42 84 -77 90 -77 12 0 42 28 42 38 0 14
-196 202 -210 202 -8 0 -161 -146 -339 -324z"/>
<path d="M1357 1942 c-39 -40 -45 -60 -25 -80 18 -18 24 -15 68 24 42 38 53
77 24 88 -25 10 -28 8 -67 -32z"/>
<path d="M1041 1626 c-168 -168 -182 -185 -172 -205 7 -11 19 -21 28 -21 21 0
373 349 373 370 0 18 -19 40 -35 40 -5 0 -93 -83 -194 -184z"/>
<path d="M388 2433 c-23 -6 -34 -49 -18 -68 8 -10 31 -15 64 -15 94 0 156 -62
156 -155 0 -75 42 -102 76 -50 36 55 -8 185 -81 241 -54 41 -141 62 -197 47z"/>
<path d="M135 2183 c-13 -13 -16 -30 -13 -79 5 -80 44 -147 111 -188 75 -46
188 -49 202 -5 10 32 -15 50 -71 53 -95 4 -156 65 -160 159 -4 72 -33 97 -69
60z"/>
</g>
</svg>
